<svg width="16" height="17" viewBox="0 0 16 17" fill="none" xmlns="http://www.w3.org/2000/svg">
<g id="mdi:eye-off">
<path id="Vector" d="M7.88663 6.5L9.99996 8.60667V8.5C9.99996 7.96957 9.78925 7.46086 9.41417 7.08579C9.0391 6.71071 8.53039 6.5 7.99996 6.5H7.88663ZM5.01996 7.03333L6.05329 8.06667C6.01996 8.20667 5.99996 8.34667 5.99996 8.5C5.99996 9.03043 6.21067 9.53914 6.58575 9.91421C6.96082 10.2893 7.46953 10.5 7.99996 10.5C8.14663 10.5 8.29329 10.48 8.43329 10.4467L9.46663 11.48C9.01996 11.7 8.52663 11.8333 7.99996 11.8333C7.1159 11.8333 6.26806 11.4821 5.64294 10.857C5.01782 10.2319 4.66663 9.38406 4.66663 8.5C4.66663 7.97333 4.79996 7.48 5.01996 7.03333ZM1.33329 3.34667L2.85329 4.86667L3.15329 5.16667C2.05329 6.03333 1.18663 7.16667 0.666626 8.5C1.81996 11.4267 4.66663 13.5 7.99996 13.5C9.03329 13.5 10.02 13.3 10.92 12.94L11.2066 13.22L13.1533 15.1667L14 14.32L2.17996 2.5M7.99996 5.16667C8.88401 5.16667 9.73186 5.51786 10.357 6.14298C10.9821 6.7681 11.3333 7.61595 11.3333 8.5C11.3333 8.92667 11.2466 9.34 11.0933 9.71333L13.0466 11.6667C14.0466 10.8333 14.8466 9.74 15.3333 8.5C14.18 5.57333 11.3333 3.5 7.99996 3.5C7.06663 3.5 6.17329 3.66667 5.33329 3.96667L6.77996 5.4C7.15996 5.25333 7.56663 5.16667 7.99996 5.16667Z" fill="#AEAEAE"/>
</g>
</svg>
