<svg width="16" height="17" viewBox="0 0 16 17" fill="none" xmlns="http://www.w3.org/2000/svg">
<g id="mdi:eye">
<path id="Vector" d="M7.99996 6.5C7.46953 6.5 6.96082 6.71071 6.58575 7.08579C6.21067 7.46086 5.99996 7.96957 5.99996 8.5C5.99996 9.03043 6.21067 9.53914 6.58575 9.91421C6.96082 10.2893 7.46953 10.5 7.99996 10.5C8.53039 10.5 9.0391 10.2893 9.41417 9.91421C9.78925 9.53914 9.99996 9.03043 9.99996 8.5C9.99996 7.96957 9.78925 7.46086 9.41417 7.08579C9.0391 6.71071 8.53039 6.5 7.99996 6.5ZM7.99996 11.8333C7.1159 11.8333 6.26806 11.4821 5.64294 10.857C5.01782 10.2319 4.66663 9.38406 4.66663 8.5C4.66663 7.61595 5.01782 6.7681 5.64294 6.14298C6.26806 5.51786 7.1159 5.16667 7.99996 5.16667C8.88401 5.16667 9.73186 5.51786 10.357 6.14298C10.9821 6.7681 11.3333 7.61595 11.3333 8.5C11.3333 9.38406 10.9821 10.2319 10.357 10.857C9.73186 11.4821 8.88401 11.8333 7.99996 11.8333ZM7.99996 3.5C4.66663 3.5 1.81996 5.57333 0.666626 8.5C1.81996 11.4267 4.66663 13.5 7.99996 13.5C11.3333 13.5 14.18 11.4267 15.3333 8.5C14.18 5.57333 11.3333 3.5 7.99996 3.5Z" fill="#AEAEAE"/>
</g>
</svg>
